# Blender 4.2.3 LTS
# www.blender.org
mtllib mirror.mtl
o Cube
v -0.500000 0.500000 0.500000
v -0.500000 -0.500000 0.500000
v -0.500000 0.500000 -0.500000
v -0.500000 -0.500000 -0.500000
v 0.500000 0.500000 -0.500000
v 0.500000 -0.500000 -0.500000
v 0.500000 0.500000 -0.500000
v 0.500000 -0.500000 -0.500000
vn -0.0000 -1.0000 -0.0000
vn -0.0000 -0.0000 -1.0000
vn -0.0000 1.0000 -0.0000
vn -1.0000 -0.0000 -0.0000
vn 0.7071 -0.0000 0.7071
vt 0.375000 0.500000
vt 0.375000 0.750000
vt 0.375000 1.000000
vt 0.375000 0.250000
vt 0.625000 0.750000
vt 0.625000 1.000000
vt 0.625000 0.500000
vt 0.625000 0.250000
s 0
usemtl Material
f 2/1/1 4/2/1 8/3/1 6/4/1
f 4/2/2 3/5/2 7/6/2 8/3/2
f 7/6/3 3/5/3 1/7/3 5/8/3
f 2/1/4 1/7/4 3/5/4 4/2/4
f 6/4/5 5/8/5 1/7/5 2/1/5
